<svg xmlns="http://www.w3.org/2000/svg" viewBox="0 0 660 110" width="660" height="110" style="width: 300px; height: 90px; transform: translate3d(0px, 0px, 0px);" preserveAspectRatio="xMidYMid meet"><defs><clipPath id="__lottie_element_3"><rect width="660" height="110" x="0" y="0"></rect></clipPath></defs><g clip-path="url(#__lottie_element_3)"><g style="display: block;" transform="matrix(0.800000011920929,0,0,0.800000011920929,-440.8139953613281,-377.4440002441406)" opacity="1"><g opacity="1" transform="matrix(1,0,0,1,609.0050048828125,540.5590209960938)"><path fill="rgb(255,255,255)" fill-opacity="1" d=" M-54.62900161743164,62.810001373291016 C-47.814998626708984,58.388999938964844 -45.236000061035156,53.96900177001953 -45.236000061035156,42.36399841308594 C-45.236000061035156,42.36399841308594 -45.236000061035156,-42.3650016784668 -45.236000061035156,-42.3650016784668 C-45.236000061035156,-53.97100067138672 -47.814998626708984,-58.391998291015625 -54.62900161743164,-62.8120002746582 C-54.62900161743164,-62.8120002746582 -54.44499969482422,-64.46900177001953 -54.44499969482422,-64.46900177001953 C-54.44499969482422,-64.46900177001953 8.918000221252441,-64.46900177001953 8.918000221252441,-64.46900177001953 C31.204999923706055,-64.46900177001953 47.5989990234375,-49.3650016784668 47.5989990234375,-30.025999069213867 C47.5989990234375,-18.420000076293945 41.52000045776367,-7.921000003814697 32.310001373291016,-3.315000057220459 C45.71099853515625,1.3020000457763672 54.62900161743164,14.008000373840332 54.41400146484375,28.180999755859375 C54.41400146484375,48.44300079345703 36.915000915527344,64.46900177001953 12.78499984741211,64.46900177001953 C12.78499984741211,64.46900177001953 -54.45199966430664,64.46900177001953 -54.45199966430664,64.46900177001953 C-54.45199966430664,64.46900177001953 -54.62900161743164,62.810001373291016 -54.62900161743164,62.810001373291016z M2.6559998989105225,-11.972999572753906 C12.970000267028809,-11.972999572753906 19.783000946044922,-18.422000885009766 19.783000946044922,-27.26099967956543 C19.783000946044922,-35.917999267578125 12.968000411987305,-42.18199920654297 2.6559998989105225,-42.18199920654297 C2.6559998989105225,-42.18199920654297 -17.60700035095215,-42.18199920654297 -17.60700035095215,-42.18199920654297 C-17.60700035095215,-42.18199920654297 -17.60700035095215,-11.972999572753906 -17.60700035095215,-11.972999572753906 C-17.60700035095215,-11.972999572753906 2.6559998989105225,-11.972999572753906 2.6559998989105225,-11.972999572753906z M8.550000190734863,42.180999755859375 C19.417999267578125,42.180999755859375 26.416000366210938,35.180999755859375 26.416000366210938,25.78700065612793 C26.416000366210938,16.39299964904785 19.416000366210938,9.57800006866455 8.732999801635742,9.57800006866455 C8.732999801635742,9.57800006866455 -17.60700035095215,9.57800006866455 -17.60700035095215,9.57800006866455 C-17.60700035095215,9.57800006866455 -17.60700035095215,42.180999755859375 -17.60700035095215,42.180999755859375 C-17.60700035095215,42.180999755859375 8.550000190734863,42.180999755859375 8.550000190734863,42.180999755859375z"></path></g><g opacity="1" transform="matrix(1,0,0,1,1323.571044921875,540.541015625)"><path fill="rgb(255,255,255)" fill-opacity="1" d=" M-42.810001373291016,55.54800033569336 C-42.810001373291016,55.54800033569336 -49.08599853515625,22.670000076293945 -49.08599853515625,22.670000076293945 C-49.08599853515625,22.670000076293945 -47.244998931884766,21.75 -47.244998931884766,21.75 C-34.34700012207031,34.641998291015625 -15.748000144958496,42.19499969482422 0.09399999678134918,42.19499969482422 C12.619000434875488,42.19499969482422 20.172000885009766,37.22700119018555 20.172000885009766,28.93199920654297 C20.172000885009766,19.170000076293945 9.855999946594238,15.487000465393066 -1.5640000104904175,13.090999603271484 C-1.5640000104904175,13.090999603271484 -13.354000091552734,10.32800006866455 -13.354000091552734,10.32800006866455 C-36.5620002746582,4.986000061035156 -47.428001403808594,-8.09000015258789 -47.428001403808594,-26.69499969482422 C-47.428001403808594,-51.37799835205078 -29.009000778198242,-66.2959976196289 -1.3799999952316284,-66.2959976196289 C6.765999794006348,-66.2959976196289 16.527000427246094,-66.32599639892578 36.01300048828125,-57.85599899291992 C36.01300048828125,-57.85599899291992 41.167999267578125,-26.510000228881836 41.167999267578125,-26.510000228881836 C41.167999267578125,-26.510000228881836 39.5099983215332,-25.95800018310547 39.5099983215332,-25.95800018310547 C25.881000518798828,-39.220001220703125 10.593000411987305,-43.270999908447266 -0.6430000066757202,-43.270999908447266 C-12.246999740600586,-43.270999908447266 -19.798999786376953,-38.48400115966797 -19.798999786376953,-30.19300079345703 C-19.798999786376953,-21.535999298095703 -11.510000228881836,-19.509000778198242 -0.09000000357627869,-16.562000274658203 C-0.09000000357627869,-16.562000274658203 11.32800006866455,-13.798999786376953 11.32800006866455,-13.798999786376953 C32.51100158691406,-8.829999923706055 49.08700180053711,1.1200000047683716 49.08700180053711,25.98699951171875 C49.08700180053711,50.66899871826172 31.405000686645508,66.32499694824219 2.11899995803833,66.32499694824219 C-13.482999801635742,66.20800018310547 -28.851999282836914,62.52199935913086 -42.810001373291016,55.54800033569336z"></path></g><g opacity="1" transform="matrix(1,0,0,1,689.2869873046875,540.5579833984375)"><path fill="rgb(255,255,255)" fill-opacity="1" d=" M18.604000091552734,42.3650016784668 C18.604000091552734,42.3650016784668 18.604000091552734,-64.46800231933594 18.604000091552734,-64.46800231933594 C18.604000091552734,-64.46800231933594 -18.41900062561035,-64.46800231933594 -18.41900062561035,-64.46800231933594 C-18.41900062561035,-64.46800231933594 -18.604000091552734,-62.81100082397461 -18.604000091552734,-62.81100082397461 C-11.605999946594238,-58.39099884033203 -8.840999603271484,-53.970001220703125 -8.840999603271484,-42.36399841308594 C-8.840999603271484,-42.36399841308594 -8.840999603271484,42.3650016784668 -8.840999603271484,42.3650016784668 C-8.840999603271484,53.970001220703125 -11.604999542236328,58.38999938964844 -18.604000091552734,62.81100082397461 C-18.604000091552734,62.81100082397461 -18.41900062561035,64.46900177001953 -18.41900062561035,64.46900177001953 C-18.41900062561035,64.46900177001953 18.604000091552734,64.46900177001953 18.604000091552734,64.46900177001953 C18.604000091552734,64.46900177001953 18.604000091552734,42.3650016784668 18.604000091552734,42.3650016784668z"></path></g><g opacity="1" transform="matrix(1,0,0,1,779.5880126953125,540.5579833984375)"><path fill="rgb(255,255,255)" fill-opacity="1" d=" M20.093000411987305,64.46900177001953 C20.093000411987305,64.46900177001953 51.111000061035156,64.46900177001953 51.111000061035156,64.46900177001953 C51.111000061035156,64.46900177001953 20.59600067138672,13.26200008392334 20.59600067138672,13.26200008392334 C36.99100112915039,7.366000175476074 47.4900016784668,-6.816999912261963 47.4900016784668,-24.49799919128418 C47.4900016784668,-47.707000732421875 29.253999710083008,-64.46900177001953 3.2829999923706055,-64.46900177001953 C3.2829999923706055,-64.46900177001953 -51.111000061035156,-64.46900177001953 -51.111000061035156,-64.46900177001953 C-51.111000061035156,-64.46900177001953 -51.111000061035156,64.46900177001953 -51.111000061035156,64.46900177001953 C-51.111000061035156,64.46900177001953 -24.347000122070312,64.46900177001953 -24.347000122070312,64.46900177001953 C-24.347000122070312,64.46900177001953 -24.347000122070312,16.209999084472656 -24.347000122070312,16.209999084472656 C-24.347000122070312,16.209999084472656 -8.642000198364258,16.209999084472656 -8.642000198364258,16.209999084472656 M1.0709999799728394,-6.815999984741211 C1.0709999799728394,-6.815999984741211 -24.347000122070312,-6.815999984741211 -24.347000122070312,-6.815999984741211 C-24.347000122070312,-6.815999984741211 -24.347000122070312,-41.44300079345703 -24.347000122070312,-41.44300079345703 C-24.347000122070312,-41.44300079345703 1.0709999799728394,-41.44300079345703 1.0709999799728394,-41.44300079345703 C11.755000114440918,-41.44300079345703 19.30699920654297,-34.07600021362305 19.30699920654297,-24.128000259399414 C19.30699920654297,-14.366000175476074 11.755000114440918,-6.815000057220459 1.0709999799728394,-6.815000057220459 C1.0709999799728394,-6.815000057220459 1.0709999799728394,-6.815999984741211 1.0709999799728394,-6.815999984741211z"></path></g><g opacity="1" transform="matrix(1,0,0,1,899.0549926757812,540.5570068359375)"><path fill="rgb(255,255,255)" fill-opacity="1" d=" M-5.85699987411499,-64.46800231933594 C-5.85699987411499,-64.46800231933594 -59.16299819946289,-64.46800231933594 -59.16299819946289,-64.46800231933594 C-59.16299819946289,-64.46800231933594 -59.34700012207031,-62.810001373291016 -59.34700012207031,-62.810001373291016 C-52.65599822998047,-58.58100128173828 -49.84299850463867,-54.34000015258789 -49.608001708984375,-43.83599853515625 C-49.608001708984375,-43.83599853515625 -49.608001708984375,43.83599853515625 -49.608001708984375,43.83599853515625 C-49.84299850463867,54.34199905395508 -52.65599822998047,58.584999084472656 -59.34700012207031,62.810001373291016 C-59.34700012207031,62.810001373291016 -59.16299819946289,64.46800231933594 -59.16299819946289,64.46800231933594 C-59.16299819946289,64.46800231933594 -5.857999801635742,64.46800231933594 -5.857999801635742,64.46800231933594 C31.163999557495117,64.46800231933594 59.34700012207031,36.65399932861328 59.34700012207031,0.0010000000474974513 C59.34700012207031,-36.6510009765625 31.163999557495117,-64.46800231933594 -5.85699987411499,-64.46800231933594z M-6.224999904632568,39.97100067138672 C-6.224999904632568,39.97100067138672 -24.090999603271484,39.97100067138672 -24.090999603271484,39.97100067138672 C-24.090999603271484,39.97100067138672 -24.090999603271484,-39.96900177001953 -24.090999603271484,-39.96900177001953 C-24.090999603271484,-39.96900177001953 -6.224999904632568,-39.96900177001953 -6.224999904632568,-39.96900177001953 C14.956999778747559,-39.96900177001953 30.982999801635742,-22.841999053955078 30.982999801635742,0.0020000000949949026 C30.982999801635742,22.847000122070312 14.956000328063965,39.97100067138672 -6.224999904632568,39.97100067138672z"></path></g><g opacity="1" transform="matrix(1,0,0,1,1014.1510009765625,540.5590209960938)"><path fill="rgb(255,255,255)" fill-opacity="1" d=" M41.452999114990234,41.444000244140625 C41.452999114990234,41.444000244140625 -13.602999687194824,41.444000244140625 -13.602999687194824,41.444000244140625 C-13.602999687194824,41.444000244140625 -13.602999687194824,8.656000137329102 -13.602999687194824,8.656000137329102 C-13.602999687194824,8.656000137329102 30.236000061035156,8.656000137329102 30.236000061035156,8.656000137329102 C30.236000061035156,8.656000137329102 30.236000061035156,-13.814000129699707 30.236000061035156,-13.814000129699707 C30.236000061035156,-13.814000129699707 -13.602999687194824,-13.814000129699707 -13.602999687194824,-13.814000129699707 C-13.602999687194824,-13.814000129699707 -13.602999687194824,-41.44300079345703 -13.602999687194824,-41.44300079345703 C-13.602999687194824,-41.44300079345703 41.452999114990234,-41.44300079345703 41.452999114990234,-41.44300079345703 C41.452999114990234,-41.44300079345703 41.452999114990234,-64.46900177001953 41.452999114990234,-64.46900177001953 C41.452999114990234,-64.46900177001953 -41.45399856567383,-64.46900177001953 -41.45399856567383,-64.46900177001953 C-41.45399856567383,-64.46900177001953 -41.45399856567383,64.46900177001953 -41.45399856567383,64.46900177001953 C-41.45399856567383,64.46900177001953 41.45199966430664,64.46900177001953 41.45199966430664,64.46900177001953 C41.45199966430664,64.46900177001953 41.452999114990234,41.444000244140625 41.452999114990234,41.444000244140625z"></path></g><g opacity="1" transform="matrix(1,0,0,1,1221.281005859375,540.5590209960938)"><path fill="rgb(255,255,255)" fill-opacity="1" d=" M41.45399856567383,41.444000244140625 C41.45399856567383,41.444000244140625 -13.602999687194824,41.444000244140625 -13.602999687194824,41.444000244140625 C-13.602999687194824,41.444000244140625 -13.602999687194824,8.656000137329102 -13.602999687194824,8.656000137329102 C-13.602999687194824,8.656000137329102 30.236000061035156,8.656000137329102 30.236000061035156,8.656000137329102 C30.236000061035156,8.656000137329102 30.236000061035156,-13.814000129699707 30.236000061035156,-13.814000129699707 C30.236000061035156,-13.814000129699707 -13.602999687194824,-13.814000129699707 -13.602999687194824,-13.814000129699707 C-13.602999687194824,-13.814000129699707 -13.602999687194824,-41.44300079345703 -13.602999687194824,-41.44300079345703 C-13.602999687194824,-41.44300079345703 41.45399856567383,-41.44300079345703 41.45399856567383,-41.44300079345703 C41.45399856567383,-41.44300079345703 41.45399856567383,-64.46900177001953 41.45399856567383,-64.46900177001953 C41.45399856567383,-64.46900177001953 -41.452999114990234,-64.46900177001953 -41.452999114990234,-64.46900177001953 C-41.452999114990234,-64.46900177001953 -41.452999114990234,64.46900177001953 -41.452999114990234,64.46900177001953 C-41.452999114990234,64.46900177001953 41.45399856567383,64.46900177001953 41.45399856567383,64.46900177001953 C41.45399856567383,64.46900177001953 41.45399856567383,41.444000244140625 41.45399856567383,41.444000244140625z"></path></g></g><g style="display: none;" transform="matrix(0.800000011920929,0,0,0.800000011920929,-439.2139892578125,-377.6440124511719)" opacity="1"><g opacity="1" transform="matrix(1,0,0,1,1115.8709716796875,506.9169921875)"><path fill="rgb(255,255,255)" fill-opacity="1" d=" M46.83100128173828,-30.64299964904785 C27.163000106811523,-30.64299964904785 12.098999977111816,-25.534000396728516 0,-9.388999938964844 C-12.097999572753906,-25.534000396728516 -27.163000106811523,-30.64299964904785 -46.83000183105469,-30.64299964904785 C-46.83000183105469,-30.64299964904785 -46.930999755859375,-7.685999870300293 -46.930999755859375,-7.685999870300293 C-30.013999938964844,-7.685999870300293 -10.767000198364258,-3.1730000972747803 -10.767000198364258,30.64299964904785 C-10.767000198364258,30.64299964904785 0,30.64299964904785 0,30.64299964904785 C0,30.64299964904785 10.767000198364258,30.64299964904785 10.767000198364258,30.64299964904785 C10.767000198364258,-3.1730000972747803 30.01300048828125,-7.685999870300293 46.930999755859375,-7.685999870300293 C46.930999755859375,-7.685999870300293 46.83100128173828,-30.64299964904785 46.83100128173828,-30.64299964904785z"></path></g></g><g style="display: block;" transform="matrix(0.800000011920929,0,0,0.800000011920929,-439.2139892578125,-377.6440124511719)" opacity="1"><g opacity="1" transform="matrix(1,0,0,1,1115.8709716796875,506.9169921875)"><path fill="rgb(255,255,255)" fill-opacity="1" d=" M46.83100128173828,-30.64299964904785 C27.163000106811523,-30.64299964904785 12.098999977111816,-25.534000396728516 0,-9.388999938964844 C-12.097999572753906,-25.534000396728516 -27.163000106811523,-30.64299964904785 -46.83000183105469,-30.64299964904785 C-46.83000183105469,-30.64299964904785 -46.930999755859375,-7.685999870300293 -46.930999755859375,-7.685999870300293 C-30.013999938964844,-7.685999870300293 -10.767000198364258,-3.1730000972747803 -10.767000198364258,30.64299964904785 C-10.767000198364258,30.64299964904785 0,30.64299964904785 0,30.64299964904785 C0,30.64299964904785 10.767000198364258,30.64299964904785 10.767000198364258,30.64299964904785 C10.767000198364258,-3.1730000972747803 30.01300048828125,-7.685999870300293 46.930999755859375,-7.685999870300293 C46.930999755859375,-7.685999870300293 46.83100128173828,-30.64299964904785 46.83100128173828,-30.64299964904785z"></path></g></g><g style="display: none;" transform="matrix(0.800000011920929,0,0,0.800000011920929,-439.2139892578125,-323.4440002441406)" opacity="1"><g opacity="1" transform="matrix(1,0,0,1,1115.8709716796875,506.9169921875)"><path fill="rgb(255,255,255)" fill-opacity="1" d=" M46.83100128173828,-30.64299964904785 C27.163000106811523,-30.64299964904785 12.098999977111816,-25.534000396728516 0,-9.388999938964844 C-12.097999572753906,-25.534000396728516 -27.163000106811523,-30.64299964904785 -46.83000183105469,-30.64299964904785 C-46.83000183105469,-30.64299964904785 -46.930999755859375,-7.685999870300293 -46.930999755859375,-7.685999870300293 C-30.013999938964844,-7.685999870300293 -10.767000198364258,-3.1730000972747803 -10.767000198364258,30.64299964904785 C-10.767000198364258,30.64299964904785 0,30.64299964904785 0,30.64299964904785 C0,30.64299964904785 10.767000198364258,30.64299964904785 10.767000198364258,30.64299964904785 C10.767000198364258,-3.1730000972747803 30.01300048828125,-7.685999870300293 46.930999755859375,-7.685999870300293 C46.930999755859375,-7.685999870300293 46.83100128173828,-30.64299964904785 46.83100128173828,-30.64299964904785z"></path></g></g></g></svg>