<svg viewBox="0 0 120 64" id="svg10912257435" style="width: 300px; height: 90px;"><path d="M 36.809 0.087 L 36.809 45.709 L 31.161 45.709 L 31.161 36.035 L 6.13 36.035 L 6.13 60.994 L 0.421 60.994 L 0.421 10.447 L 6.13 10.447 L 6.13 27.609 L 31.161 27.609 L 31.161 0.088 L 36.809 0.088 Z M 46.11 18.873 L 46.11 27.672 L 54.579 27.672 L 54.579 36.097 L 46.11 36.097 L 46.11 45.708 L 55.834 45.708 L 55.834 54.132 L 40.402 54.132 L 40.402 10.448 L 55.835 10.448 L 55.835 18.872 L 46.11 18.872 Z M 87.783 48.142 C 87.783 57.441 81.635 63.432 73.667 63.432 C 65.699 63.432 59.425 57.44 59.425 48.142 L 59.425 15.315 C 59.425 6.079 65.636 0.087 73.603 0.087 L 84.143 0.087 L 84.143 8.511 L 73.854 8.511 C 69.4 8.511 65.135 10.822 65.135 16.313 L 65.135 47.519 C 65.135 52.699 69.4 55.007 73.667 55.007 C 77.933 55.007 82.136 52.697 82.136 47.519 L 82.136 36.098 L 72.475 36.098 L 72.475 27.673 L 87.783 27.673 L 87.783 48.144 Z M 119.77 33.01 C 119.77 42.185 113.621 48.114 105.592 48.114 C 97.563 48.114 91.414 42.184 91.414 33.01 L 91.414 30.514 C 91.414 21.402 97.625 15.972 105.53 15.972 L 116.132 15.972 L 116.132 24.396 L 105.844 24.396 C 101.391 24.396 97.124 25.957 97.124 31.262 L 97.124 32.511 C 97.124 37.628 101.327 39.688 106.598 39.688 C 111.491 39.688 114.126 37.88 114.126 36.131 L 114.126 36.07 L 104.465 36.07 L 104.465 27.674 L 119.773 27.674 L 119.773 33.012 Z" fill="var(--token-824aa4bf-3264-49f3-9107-b5c1fe37fcc3, rgb(255, 255, 255)) /* {&quot;name&quot;:&quot;White&quot;} */"></path></svg>